<?xml version="1.0" encoding="utf-8"?>
<!-- Generator: Adobe Illustrator 25.0.0, SVG Export Plug-In . SVG Version: 6.00 Build 0)  -->
<svg version="1.1" id="Layer_1" xmlns="http://www.w3.org/2000/svg" xmlns:xlink="http://www.w3.org/1999/xlink" x="0px" y="0px"
	 viewBox="0 0 692.4 172.3" style="enable-background:new 0 0 692.4 172.3;" xml:space="preserve">
<style type="text/css">
	.st0{fill:#F09748;}
	.st1{clip-path:url(#SVGID_2_);}
	.st2{fill:none;}
	.st3{fill:#019FAE;}
	.st4{fill:#E1F1F4;}
	.st5{clip-path:url(#SVGID_4_);}
</style>
<g id="Layer_1_1_">
	<circle class="st0" cx="-28" cy="8" r="7.9"/>
</g>
<g id="Layer_2_1_">
	<g>
		<defs>
			<circle id="SVGID_1_" cx="-28" cy="8" r="7.8"/>
		</defs>
		<clipPath id="SVGID_2_">
			<use xlink:href="#SVGID_1_"  style="overflow:visible;"/>
		</clipPath>
		<g class="st1">
			<rect x="-36.2" y="0" class="st2" width="16" height="16"/>
			<circle class="st2" cx="-28.1" cy="8.1" r="7.9"/>
			<circle class="st2" cx="-28" cy="8" r="7.8"/>
			<path class="st3" d="M-16.4,7.1c-1.5-0.1-2.2,1.1-4.3,2.3c-0.4,0.2-3.8,2.2-4.7,1.3c-0.5-0.5-0.2-1.8,0.4-2.7
				c1.3-1.6,3.7-0.8,4.1-1.9c0.4-0.9-0.9-2.6-2.4-3.4c-2.7-1.3-5.9-0.8-8.1,1.2c-2.6,2.3-1.8,5.3-4.1,6.5c-1.4,0.6-2.9,0.5-4.3-0.1
				l-0.8,2.5c2,0.8,4.3,0.8,6.3,0c1.4-0.8,2.5-2,3.1-3.5h3c0.2,2.7,1.1,3.5,1.7,3.8c2.2,1,7.4-1.9,8.5-2.9c0.4-0.4,0.9-0.6,1.5-0.6
				c0.2,0,0.4,0.1,0.6,0.2l1.5-2.1C-15.1,7.4-15.7,7.1-16.4,7.1z M-30.8,7.5c0.2-0.4,1.2-2.9,3.5-3.3c1.7-0.3,3.4,0.5,3.3,0.8
				s-1,0.1-2.1,0.7c-0.7,0.4-1.3,1-1.7,1.7L-30.8,7.5z"/>
		</g>
	</g>
</g>
<g>
	<rect class="st4" width="692.8" height="172.5"/>
</g>
<g>
	<g id="Layer_1_2_">
		<circle class="st0" cx="346.2" cy="86.1" r="81.9"/>
	</g>
	<g id="Layer_2_2_">
		<g>
			<defs>
				<circle id="SVGID_3_" cx="346.3" cy="86.2" r="81.2"/>
			</defs>
			<clipPath id="SVGID_4_">
				<use xlink:href="#SVGID_3_"  style="overflow:visible;"/>
			</clipPath>
			<g class="st5">
				<rect x="261.6" y="2.9" class="st2" width="166.2" height="166.2"/>
				<circle class="st2" cx="345.3" cy="87" r="81.9"/>
				<circle class="st2" cx="346.3" cy="86.2" r="81.2"/>
				<path class="st3" d="M466,76.4c-15.4-0.7-22.8,11.1-44.8,23.7c-4.3,2.4-39.6,22.7-49.1,13.3c-5.1-5.1-2.6-19,4.5-27.7
					c13.4-16.6,37.9-8.4,42.6-19.4c4.1-9.4-9.3-27-24.7-35.6c-27.9-13.1-60.9-8.4-84,12.1c-26.5,23.9-18.2,55.3-42.9,67.8
					c-14.4,5.7-30.6,5.3-44.7-1.1l-8.6,25.8c20.8,8.7,44.3,8.7,65.1,0c14.6-7.9,26-20.5,32.2-35.9h31.1c2.4,28.2,11,36.5,17.2,39.4
					c22.6,10.4,76.4-20.2,88.2-29.8c4.2-3.9,9.7-6,15.4-5.8c2.2,0.4,4.2,1.3,6,2.6l16.1-21.8C480.1,79.6,473.2,76.9,466,76.4z
					 M316.9,81.4c1.7-4.1,12.9-29.8,36.6-34.5c17.2-3.4,35,5.3,34.7,8.6c-0.3,3.3-10.4,0.9-22.3,7.5c-7.4,4.4-13.6,10.6-17.9,18
					L316.9,81.4z"/>
			</g>
		</g>
	</g>
</g>
</svg>
