<?xml version="1.0" encoding="utf-8"?>
<!-- Generator: Adobe Illustrator 24.3.0, SVG Export Plug-In . SVG Version: 6.00 Build 0)  -->
<svg version="1.1" id="Layer_1" xmlns="http://www.w3.org/2000/svg" xmlns:xlink="http://www.w3.org/1999/xlink" x="0px" y="0px"
	 viewBox="0 0 52 52" style="enable-background:new 0 0 52 52;" xml:space="preserve">
<style type="text/css">
	.st0{fill:#FFFFFF;}
</style>
<path class="st0" d="M2.4,42.8L2,42.5c-0.3-0.3-0.3-0.8-0.3-1.2V10.7c0-1.1,0.8-1.9,1.9-1.9h0.2l0.1,0.1
	c7.3,6.7,12.4,11.5,15.8,14.7l1.7,1.6L2.4,42.8z M3.4,9.8C3,9.9,2.7,10.2,2.7,10.7v30.4L20,25.2l-0.9-0.8
	C15.7,21.2,10.7,16.4,3.4,9.8z"/>
<path class="st0" d="M48.5,43.2h-45c-0.6,0-1.2-0.3-1.5-0.9L1.8,42l18.9-17.5l0.3,0.3c1.5,1.3,2.9,2.7,4.2,4.3l0.1,0.1v0.1
	c0.1,0.1,0.2,0.2,0.2,0.2v-0.2l0.1-0.1c1.5-1.6,2.9-3,4.2-4.1l0.3-0.3l20,17.3L50,42.4C49.6,42.9,49.1,43.2,48.5,43.2z M3.1,42.1
	c0.1,0.1,0.3,0.1,0.4,0.1h45c0.1,0,0.2,0,0.3-0.1l-18.5-16c-1.2,1.1-2.4,2.3-3.7,3.7c-0.1,0.4-0.4,0.8-1,0.8c-0.5,0-1-0.5-1.1-0.8
	c-1.2-1.3-2.4-2.6-3.8-3.8L3.1,42.1z"/>
<path class="st0" d="M49.9,43L29.5,25.5l0.4-0.4c3.2-2.9,8.9-8.1,18.2-16.2l0.1-0.1h0.2c1.1,0,1.9,0.8,1.9,1.9v30.6
	c0,0.3-0.1,0.6-0.2,0.8L49.9,43z M31.1,25.5l18.3,15.7V10.7c0-0.5-0.3-0.8-0.7-0.9C39.9,17.5,34.3,22.5,31.1,25.5z"/>
<path class="st0" d="M25.6,30.6c-0.1,0-0.2,0-0.3-0.1L3.3,9.7C3.1,9.5,3.1,9.3,3.1,9.1c0.1-0.2,0.3-0.3,0.5-0.3h44.9
	c0.2,0,0.4,0.1,0.5,0.3s0,0.4-0.1,0.6l-23,20.8C25.8,30.6,25.7,30.6,25.6,30.6z M4.9,9.8l20.8,19.6L47.2,9.8H4.9z"/>
<path class="st0" d="M48.6,44.2h-45c-1,0-1.9-0.5-2.3-1.2c-0.5-0.6-0.5-1.3-0.5-1.7V10.7c0-1.6,1.3-2.9,2.9-2.9h45
	c1.5,0,2.7,1.3,2.7,2.9v30.6c0,0.5-0.1,0.9-0.2,1.1L51,42.8L50.9,43C50.3,43.8,49.5,44.2,48.6,44.2z M3.8,41.2h44.6V10.8H3.8V41.2z
	 M48.4,10.7L48.4,10.7L48.4,10.7z"/>
</svg>
