<svg id="Layer_1" data-name="Layer 1" xmlns="http://www.w3.org/2000/svg" viewBox="0 0 612 612"><defs></defs><path class="cls-1" d="M440.35,4.75H171.65c-91.8,0-166.9,75.1-166.9,166.9v268.7c0,91.8,75.1,166.9,166.9,166.9h268.7c91.8,0,166.9-75.1,166.9-166.9V171.65C607.25,79.85,532.15,4.75,440.35,4.75Zm121,401.81C561.35,491,492.09,560,407.53,560H206c-84.56,0-153.82-69-153.82-153.4v-201C52.18,121.16,121.44,52,206,52H407.53c84.56,0,153.82,69.12,153.82,153.54Z"/><path class="cls-1" d="M452.31,99.46a42.42,42.42,0,1,0,42.42,42.42A42.44,42.44,0,0,0,452.31,99.46Zm0,66.35a23.86,23.86,0,1,1,23.79-23.93A23.89,23.89,0,0,1,452.31,165.81Z"/><path class="cls-1" d="M306,168.87c-3.48,0-6.81.13-10.29.41-1.39,0-2.78.14-4.31.28a137.16,137.16,0,0,0,11.4,273.85c3.48,0,7-.14,10.29-.41,1.39-.14,2.93-.28,4.31-.28A137.16,137.16,0,0,0,306,168.87Zm0,44.22A92.91,92.91,0,1,1,213.09,306,92.9,92.9,0,0,1,306,213.09Z"/></svg>