<svg id="Layer_2" data-name="Layer 2" xmlns="http://www.w3.org/2000/svg" viewBox="0 0 600 600"><defs><style type="text/css">
	.st0{fill:#FFFFFF;}
</style></defs><path class="cls-1" d="M437.08,0h-273C74.47,0,1.15,73.32,1.15,162.93v273c0,89.62,73.32,162.94,162.93,162.94h273c89.6,0,162.92-73.32,162.92-162.94v-273C600,73.32,526.68,0,437.08,0ZM544.81,433.83c0,60.41-49.42,109.84-109.84,109.84H166.18c-60.41,0-109.84-49.43-109.84-109.84V165.05c0-60.42,49.43-109.86,109.84-109.86H435c60.42,0,109.84,49.44,109.84,109.86Z"/><path class="cls-1" d="M493.8,138.23a34.39,34.39,0,1,1-34.39-34.4A34.39,34.39,0,0,1,493.8,138.23Z"/><path class="cls-1" d="M297.6,144.14A154.86,154.86,0,1,0,452.45,299,154.86,154.86,0,0,0,297.6,144.14Zm0,255.38A100.52,100.52,0,1,1,398.12,299,100.52,100.52,0,0,1,297.6,399.52Z"/></svg>