<?xml version="1.0" encoding="utf-8"?>
<!-- Generator: Adobe Illustrator 24.3.0, SVG Export Plug-In . SVG Version: 6.00 Build 0)  -->
<svg version="1.1" id="Layer_1" xmlns="http://www.w3.org/2000/svg" xmlns:xlink="http://www.w3.org/1999/xlink" x="0px" y="0px"
	 viewBox="0 0 52 52" style="enable-background:new 0 0 52 52;" xml:space="preserve">
<style type="text/css">
	.st0{fill:#FFFFFF;}
</style>
<g>
	<path class="st0" d="M26,49.6C13,49.6,2.4,39,2.4,26S13,2.4,26,2.4S49.6,13,49.6,26S39,49.6,26,49.6z M26,5.2
		C14.5,5.2,5.2,14.5,5.2,26S14.5,46.8,26,46.8S46.8,37.5,46.8,26S37.5,5.2,26,5.2z"/>
	<path class="st0" d="M20.7,37.3h-6.2V21l0.1-0.1c0.2-0.2,0.3-0.3,5.6-0.2h0.5V37.3z M15.4,36.3h4.3V21.5c-1.8,0-3.6,0-4.3,0
		C15.4,21.5,15.4,36.3,15.4,36.3z"/>
	<path class="st0" d="M39.2,37.3H33V27.1c-0.2-0.5-0.6-1.2-1.4-1.4c-1.2-0.3-2.6,0.3-3.1,1.4v10.1h-6.1V20.7l6.1-0.1v1.7
		c2.7-2.1,6.1-2.4,8.3-0.7c1.3,1.1,2.2,2.8,2.3,4.7L39.2,37.3z M33.9,36.3h4.3v-9.9c-0.1-1.6-0.8-3-1.9-4c-2-1.6-5.5-1-7.9,1.3
		l-0.8,0.8v-2.9l-4.3,0.1v14.7h4.2V27c0.7-1.6,2.5-2.5,4.2-2.1c1,0.3,1.7,1.1,2,2.1v0.2v9.1H33.9z"/>
	<path class="st0" d="M17.6,19.4c-1.8,0-3.3-1.5-3.3-3.3s1.5-3.3,3.3-3.3s3.3,1.5,3.3,3.3S19.4,19.4,17.6,19.4z M17.6,13.7
		c-1.3,0-2.4,1.1-2.4,2.4s1.1,2.4,2.4,2.4s2.4-1.1,2.4-2.4S18.9,13.7,17.6,13.7z"/>
</g>
</svg>
