<?xml version="1.0" encoding="utf-8"?>
<!-- Generator: Adobe Illustrator 24.3.0, SVG Export Plug-In . SVG Version: 6.00 Build 0)  -->
<svg version="1.1" id="Layer_1" xmlns="http://www.w3.org/2000/svg" xmlns:xlink="http://www.w3.org/1999/xlink" x="0px" y="0px"
	 viewBox="0 0 52 52" style="enable-background:new 0 0 52 52;" xml:space="preserve">
<style type="text/css">
	.st0{fill:#FFFFFF;}
</style>
<path class="st0" d="M8.9,40.2l-0.3-0.4c-3.1-3.9-4.7-8.6-4.7-13.6v-0.5H14v0.5c0,3.2,0.7,6.5,2,9.5l0.2,0.5l-0.5,0.2
	c-2.3,0.8-4.6,2-6.5,3.6L8.9,40.2z M4.9,26.6C5,31,6.4,35.2,9,38.7c1.8-1.3,3.8-2.4,5.9-3.2c-1.2-2.8-1.8-5.8-1.9-8.9H4.9z"/>
<path class="st0" d="M14,26.6H3.7v-0.5c0-5,1.7-9.9,4.7-13.6l0.3-0.4l0.4,0.3c2,1.6,4.2,2.8,6.6,3.6l0.5,0.2L16,16.7
	c-1.3,3-2,6.2-2,9.5C14,26.2,14,26.6,14,26.6z M4.8,25.6H13c0.1-3,0.7-6,1.9-8.8c-2.2-0.8-4.2-1.9-6-3.2C6.4,16.9,4.9,21.1,4.8,25.6
	z"/>
<path class="st0" d="M48.7,26.6H38.1v-0.5c0-3.3-0.7-6.5-1.9-9.2L36,16.4l0.6-0.2c2.4-0.8,4.8-2,6.9-3.8l0.4-0.3l0.3,0.4
	c3,3.8,4.6,8.6,4.6,13.6L48.7,26.6L48.7,26.6z M39.1,25.6h8.5c-0.1-4.4-1.5-8.6-4-12.1c-2,1.5-4.1,2.7-6.3,3.4
	C38.4,19.5,39.1,22.5,39.1,25.6z"/>
<path class="st0" d="M43.7,40.3L43.3,40c-2.1-1.7-4.5-3-6.9-3.8L35.8,36l0.2-0.5c1.4-3,2-6.2,2-9.4v-0.5h10.6v0.5
	c0,5.1-1.6,9.8-4.7,13.7L43.7,40.3z M37.2,35.4c2.2,0.8,4.3,1.9,6.3,3.4c2.6-3.5,4-7.7,4.1-12.2h-8.5C39,29.6,38.4,32.5,37.2,35.4z"
	/>
<path class="st0" d="M15.3,36.4L15.1,36c-1.4-3.1-2.1-6.5-2.1-9.9v-0.5h13.7v8.9h-0.5c-3.5,0-7,0.6-10.4,1.7L15.3,36.4z M14,26.6
	c0.1,2.9,0.7,5.8,1.8,8.5c3.3-1,6.5-1.6,9.8-1.6v-6.9H14z"/>
<path class="st0" d="M36.8,36.3l-0.4-0.1c-3.5-1.1-6.9-1.6-10-1.6h-0.5v-8.9h13.3v0.5c0,3.3-0.7,6.6-2.1,9.8L36.8,36.3z M26.8,33.5
	c3,0.1,6.1,0.6,9.4,1.5c1.2-2.7,1.8-5.5,1.8-8.4H26.8V33.5z"/>
<path class="st0" d="M39.1,26.6H25.7v-8.9h0.5c3.6,0,7-0.6,10.1-1.6l0.4-0.2l0.2,0.4c1.4,3.1,2.1,6.4,2.1,9.8L39.1,26.6L39.1,26.6z
	 M26.7,25.6H38c-0.1-2.9-0.7-5.7-1.8-8.4c-3,1-6.2,1.5-9.5,1.5V25.6z"/>
<path class="st0" d="M26.7,26.6H13v-0.5c0-3.4,0.7-6.8,2.1-9.9l0.2-0.4l0.4,0.1c3.4,1.1,7,1.7,10.4,1.7h0.5v9H26.7z M14,25.6h11.6
	v-6.9c-3.2-0.1-6.6-0.6-9.8-1.6C14.7,19.8,14.1,22.7,14,25.6z"/>
<path class="st0" d="M26,48.4c-0.1,0-0.2,0-0.3,0C21.1,45.3,17.5,41,15.1,36l-0.2-0.5l0.5-0.2c3.3-1.2,6.9-1.8,10.8-1.8h0.5v14.7
	C26.5,48.2,26.2,48.3,26,48.4z M16.3,36.1c2.2,4.4,5.4,8.2,9.4,11V34.5C22.3,34.6,19.2,35.1,16.3,36.1z"/>
<path class="st0" d="M15.9,17.1l-0.4-0.2c-2.5-0.9-4.8-2.2-6.9-3.8l-0.4-0.3l0.3-0.4C12.7,6.9,19.3,3.6,26,3.6h1.7l-1.4,0.9
	c-4.5,3.2-8.1,7.3-10.2,12.1L15.9,17.1z M9.6,12.6c1.8,1.3,3.7,2.4,5.8,3.2c2-4.2,5.1-8,9-11C18.7,5.2,13.3,8.1,9.6,12.6z"/>
<path class="st0" d="M26.7,18.7h-0.5c-3.6,0-7.3-0.6-10.9-1.8l-0.6-0.2l0.3-0.5c2.5-5.2,6.2-9.5,10.7-12.5L26,3.5l0.8,0.4L26.7,18.7
	L26.7,18.7z M16.2,16.1c3.1,1,6.3,1.5,9.5,1.6V5C21.8,7.7,18.5,11.6,16.2,16.1z"/>
<path class="st0" d="M26.2,18.7h-0.5c0-5.1,0-10.1,0-15.2c0.3,0.1,0.6,0.2,0.8,0.3C31.2,7,34.8,11.4,37,16.3l0.2,0.5L36.7,17
	C33.4,18.1,29.9,18.7,26.2,18.7z M26.7,5.3v12.4c3.2,0,6.2-0.5,9.1-1.5C33.8,12,30.7,8.2,26.7,5.3z"/>
<path class="st0" d="M36.3,17.2l-0.2-0.4c-2.2-4.9-5.6-9-10.1-12.1l-0.2-0.2V3.6h0.5c6.9,0,13.6,3.3,17.8,8.7l0.3,0.4L44,13.1
	c-2.2,1.8-4.7,3.1-7.2,3.9L36.3,17.2z M27.8,4.7c3.9,3,7,6.8,9.1,11.2c2.1-0.7,4.2-1.8,6.1-3.3C39.3,8,33.7,5.1,27.8,4.7z"/>
<path class="st0" d="M25.7,48.3c0-4.9,0-9.9,0-14.8h0.5c3.7,0,7.2,0.6,10.5,1.7l0.5,0.2L37,35.9c-2.3,4.9-5.9,9.2-10.5,12.4
	C26.2,48.3,26,48.3,25.7,48.3z M26.7,34.5v12.3c3.9-2.9,7-6.6,9.1-10.8C32.9,35.1,29.9,34.6,26.7,34.5z"/>
<path class="st0" d="M26.1,49.8C13,49.8,2.4,39.2,2.4,26.1S13,2.4,26.1,2.4S49.8,13,49.8,26.1S39.1,49.8,26.1,49.8z M26.1,5.5
	c-11.4,0-20.6,9.2-20.6,20.6s9.2,20.6,20.6,20.6s20.6-9.2,20.6-20.6S37.4,5.5,26.1,5.5z"/>
</svg>
